HIERARCHY
ROOT Root
{
  OFFSET 0.0 0.0 0.0
  CHANNELS 6 Xposition Yposition Zposition Zrotation Yrotation Xrotation
  JOINT Hips
  {
    OFFSET 0.0 100.0 0.0
    CHANNELS 6 Xposition Yposition Zposition Zrotation Yrotation Xrotation
    JOINT Spine1
    {
      OFFSET 5.003913 -0.037094 -0.013727
      CHANNELS 3 Zrotation Yrotation Xrotation
      JOINT Spine2
      {
        OFFSET 7.125363 -1e-06 0.0
        CHANNELS 3 Zrotation Yrotation Xrotation
        JOINT Chest
        {
          OFFSET 7.594027 1e-06 0.0
          CHANNELS 3 Zrotation Yrotation Xrotation
          JOINT Neck1
          {
            OFFSET 26.313086 -0.460272 -0.181672
            CHANNELS 3 Zrotation Yrotation Xrotation
            JOINT Neck2
            {
              OFFSET 8.045911 0.0 0.0
              CHANNELS 3 Zrotation Yrotation Xrotation
              JOINT Head
              {
                OFFSET 6.432774 0.0 0.0
                CHANNELS 3 Zrotation Yrotation Xrotation
                JOINT HeadEnd
                {
                  OFFSET 16.169773 0.06451 0.00362
                  CHANNELS 3 Zrotation Yrotation Xrotation
                }
                JOINT Jaw
                {
                  OFFSET 0.108741 3.12938 0.002639
                  CHANNELS 3 Zrotation Yrotation Xrotation
                }
                JOINT LeftEye
                {
                  OFFSET 4.45173 8.166359 3.206392
                  CHANNELS 3 Zrotation Yrotation Xrotation
                }
                JOINT RightEye
                {
                  OFFSET 4.436895 8.135758 -3.222429
                  CHANNELS 3 Zrotation Yrotation Xrotation
                }
              }
            }
          }
          JOINT LeftShoulder
          {
            OFFSET 23.218927 5.195579 1.621656
            CHANNELS 3 Zrotation Yrotation Xrotation
            JOINT LeftArm
            {
              OFFSET 15.902118 2e-06 -2e-06
              CHANNELS 3 Zrotation Yrotation Xrotation
              JOINT LeftForeArm
              {
                OFFSET 28.739307 0.0 -1e-06
                CHANNELS 3 Zrotation Yrotation Xrotation
                JOINT LeftHand
                {
                  OFFSET 27.093981 -4e-06 0.0
                  CHANNELS 3 Zrotation Yrotation Xrotation
                  JOINT LeftHandThumb1
                  {
                    OFFSET 2.276781 3.380274 0.83384
                    CHANNELS 3 Zrotation Yrotation Xrotation
                    JOINT LeftHandThumb2
                    {
                      OFFSET 4.705309 -1e-06 -1e-06
                      CHANNELS 3 Zrotation Yrotation Xrotation
                      JOINT LeftHandThumb3
                      {
                        OFFSET 2.798515 0.0 3e-06
                        CHANNELS 3 Zrotation Yrotation Xrotation
                        JOINT LeftHandThumbEnd
                        {
                          OFFSET 3.180793 4e-06 -4e-06
                          CHANNELS 3 Zrotation Yrotation Xrotation
                        }
                      }
                    }
                  }
                  JOINT LeftHandIndex1
                  {
                    OFFSET 3.247786 2.352677 0.137192
                    CHANNELS 3 Zrotation Yrotation Xrotation
                    JOINT LeftHandIndex2
                    {
                      OFFSET 6.367095 1e-06 0.0
                      CHANNELS 3 Zrotation Yrotation Xrotation
                      JOINT LeftHandIndex3
                      {
                        OFFSET 3.662364 0.0 0.0
                        CHANNELS 3 Zrotation Yrotation Xrotation
                        JOINT LeftHandIndex4
                        {
                          OFFSET 2.329242 4e-06 -4e-06
                          CHANNELS 3 Zrotation Yrotation Xrotation
                          JOINT LeftHandIndexEnd
                          {
                            OFFSET 2.767823 1e-06 0.0
                            CHANNELS 3 Zrotation Yrotation Xrotation
                          }
                        }
                      }
                    }
                  }
                  JOINT LeftHandMiddle1
                  {
                    OFFSET 3.163612 0.945023 -0.406112
                    CHANNELS 3 Zrotation Yrotation Xrotation
                    JOINT LeftHandMiddle2
                    {
                      OFFSET 6.276789 3e-06 0.0
                      CHANNELS 3 Zrotation Yrotation Xrotation
                      JOINT LeftHandMiddle3
                      {
                        OFFSET 4.35652 -1e-06 4e-06
                        CHANNELS 3 Zrotation Yrotation Xrotation
                        JOINT LeftHandMiddle4
                        {
                          OFFSET 2.996877 0.0 8e-06
                          CHANNELS 3 Zrotation Yrotation Xrotation
                          JOINT LeftHandMiddleEnd
                          {
                            OFFSET 2.323256 3e-06 -4e-06
                            CHANNELS 3 Zrotation Yrotation Xrotation
                          }
                        }
                      }
                    }
                  }
                  JOINT LeftHandRing1
                  {
                    OFFSET 2.882606 -0.309162 0.107445
                    CHANNELS 3 Zrotation Yrotation Xrotation
                    JOINT LeftHandRing2
                    {
                      OFFSET 6.033198 0.0 4e-06
                      CHANNELS 3 Zrotation Yrotation Xrotation
                      JOINT LeftHandRing3
                      {
                        OFFSET 4.350578 3e-06 0.0
                        CHANNELS 3 Zrotation Yrotation Xrotation
                        JOINT LeftHandRing4
                        {
                          OFFSET 2.651321 2e-06 -7e-06
                          CHANNELS 3 Zrotation Yrotation Xrotation
                          JOINT LeftHandRingEnd
                          {
                            OFFSET 1.937663 1e-06 -4e-06
                            CHANNELS 3 Zrotation Yrotation Xrotation
                          }
                        }
                      }
                    }
                  }
                  JOINT LeftHandPinky1
                  {
                    OFFSET 2.865315 -1.525436 0.575687
                    CHANNELS 3 Zrotation Yrotation Xrotation
                    JOINT LeftHandPinky2
                    {
                      OFFSET 5.54936 1e-06 -8e-06
                      CHANNELS 3 Zrotation Yrotation Xrotation
                      JOINT LeftHandPinky3
                      {
                        OFFSET 3.070974 0.0 -4e-06
                        CHANNELS 3 Zrotation Yrotation Xrotation
                        JOINT LeftHandPinky4
                        {
                          OFFSET 1.549672 1e-06 0.0
                          CHANNELS 3 Zrotation Yrotation Xrotation
                          JOINT LeftHandPinkyEnd
                          {
                            OFFSET 1.952123 0.0 0.0
                            CHANNELS 3 Zrotation Yrotation Xrotation
                          }
                        }
                      }
                    }
                  }
                }
              }
            }
          }
          JOINT RightShoulder
          {
            OFFSET 23.161716 5.296122 -1.380114
            CHANNELS 3 Zrotation Yrotation Xrotation
            JOINT RightArm
            {
              OFFSET -16.027195 -2e-06 1.1e-05
              CHANNELS 3 Zrotation Yrotation Xrotation
              JOINT RightForeArm
              {
                OFFSET -28.736639 4e-06 2e-06
                CHANNELS 3 Zrotation Yrotation Xrotation
                JOINT RightHand
                {
                  OFFSET -27.133619 6e-06 0.0
                  CHANNELS 3 Zrotation Yrotation Xrotation
                  JOINT RightHandThumb1
                  {
                    OFFSET -2.274328 -3.351035 -0.83067
                    CHANNELS 3 Zrotation Yrotation Xrotation
                    JOINT RightHandThumb2
                    {
                      OFFSET -4.703594 -3e-06 2e-06
                      CHANNELS 3 Zrotation Yrotation Xrotation
                      JOINT RightHandThumb3
                      {
                        OFFSET -2.794935 -4e-06 -3e-06
                        CHANNELS 3 Zrotation Yrotation Xrotation
                        JOINT RightHandThumbEnd
                        {
                          OFFSET -3.183852 4e-06 1e-06
                          CHANNELS 3 Zrotation Yrotation Xrotation
                        }
                      }
                    }
                  }
                  JOINT RightHandIndex1
                  {
                    OFFSET -3.253496 -2.33755 -0.127667
                    CHANNELS 3 Zrotation Yrotation Xrotation
                    JOINT RightHandIndex2
                    {
                      OFFSET -6.344434 0.0 0.0
                      CHANNELS 3 Zrotation Yrotation Xrotation
                      JOINT RightHandIndex3
                      {
                        OFFSET -3.654871 0.0 -8e-06
                        CHANNELS 3 Zrotation Yrotation Xrotation
                        JOINT RightHandIndex4
                        {
                          OFFSET -2.327586 -1e-06 0.0
                          CHANNELS 3 Zrotation Yrotation Xrotation
                          JOINT RightHandIndexEnd
                          {
                            OFFSET -2.770001 3e-06 8e-06
                            CHANNELS 3 Zrotation Yrotation Xrotation
                          }
                        }
                      }
                    }
                  }
                  JOINT RightHandMiddle1
                  {
                    OFFSET -3.168223 -0.944764 0.411762
                    CHANNELS 3 Zrotation Yrotation Xrotation
                    JOINT RightHandMiddle2
                    {
                      OFFSET -6.266691 -1e-06 -4e-06
                      CHANNELS 3 Zrotation Yrotation Xrotation
                      JOINT RightHandMiddle3
                      {
                        OFFSET -4.348901 0.0 0.0
                        CHANNELS 3 Zrotation Yrotation Xrotation
                        JOINT RightHandMiddle4
                        {
                          OFFSET -3.00024 2e-06 -4e-06
                          CHANNELS 3 Zrotation Yrotation Xrotation
                          JOINT RightHandMiddleEnd
                          {
                            OFFSET -2.321477 -4e-06 -4e-06
                            CHANNELS 3 Zrotation Yrotation Xrotation
                          }
                        }
                      }
                    }
                  }
                  JOINT RightHandRing1
                  {
                    OFFSET -2.885654 0.293261 -0.119232
                    CHANNELS 3 Zrotation Yrotation Xrotation
                    JOINT RightHandRing2
                    {
                      OFFSET -6.032835 -1e-06 -4e-06
                      CHANNELS 3 Zrotation Yrotation Xrotation
                      JOINT RightHandRing3
                      {
                        OFFSET -4.33881 0.0 -4e-06
                        CHANNELS 3 Zrotation Yrotation Xrotation
                        JOINT RightHandRing4
                        {
                          OFFSET -2.654903 -4e-06 -4e-06
                          CHANNELS 3 Zrotation Yrotation Xrotation
                          JOINT RightHandRingEnd
                          {
                            OFFSET -1.935122 0.0 4e-06
                            CHANNELS 3 Zrotation Yrotation Xrotation
                          }
                        }
                      }
                    }
                  }
                  JOINT RightHandPinky1
                  {
                    OFFSET -2.866241 1.503904 -0.60527
                    CHANNELS 3 Zrotation Yrotation Xrotation
                    JOINT RightHandPinky2
                    {
                      OFFSET -5.553177 -2e-06 0.0
                      CHANNELS 3 Zrotation Yrotation Xrotation
                      JOINT RightHandPinky3
                      {
                        OFFSET -3.062664 -1e-06 -4e-06
                        CHANNELS 3 Zrotation Yrotation Xrotation
                        JOINT RightHandPinky4
                        {
                          OFFSET -1.546529 2e-06 4e-06
                          CHANNELS 3 Zrotation Yrotation Xrotation
                          JOINT RightHandPinkyEnd
                          {
                            OFFSET -1.952341 0.0 -4e-06
                            CHANNELS 3 Zrotation Yrotation Xrotation
                          }
                        }
                      }
                    }
                  }
                }
              }
            }
          }
        }
      }
    }
    JOINT LeftLeg
    {
      OFFSET -8.443107 2.567604 10.043214
      CHANNELS 3 Zrotation Yrotation Xrotation
      JOINT LeftShin
      {
        OFFSET 43.229198 1e-06 -1e-06
        CHANNELS 3 Zrotation Yrotation Xrotation
        JOINT LeftFoot
        {
          OFFSET 42.298611 1e-06 1e-06
          CHANNELS 3 Zrotation Yrotation Xrotation
          JOINT LeftToeBase
          {
            OFFSET 14.165858 1e-06 0.0
            CHANNELS 3 Zrotation Yrotation Xrotation
            JOINT LeftToeEnd
            {
              OFFSET 6.7141 -0.234461 0.0
              CHANNELS 3 Zrotation Yrotation Xrotation
            }
          }
        }
      }
    }
    JOINT RightLeg
    {
      OFFSET -8.303923 2.592729 -10.047278
      CHANNELS 3 Zrotation Yrotation Xrotation
      JOINT RightShin
      {
        OFFSET -43.369682 0.0 1e-06
        CHANNELS 3 Zrotation Yrotation Xrotation
        JOINT RightFoot
        {
          OFFSET -42.260784 4e-06 2e-06
          CHANNELS 3 Zrotation Yrotation Xrotation
          JOINT RightToeBase
          {
            OFFSET -14.222245 -2e-06 -1e-06
            CHANNELS 3 Zrotation Yrotation Xrotation
            JOINT RightToeEnd
            {
              OFFSET -6.660062 0.232574 -2e-06
              CHANNELS 3 Zrotation Yrotation Xrotation
            }
          }
        }
      }
    }
  }
}
MOTION
Frames: 5
Frame Time: 0.03333333333333333
0.0 0.0 0.0 0.0 -0.0 0.0 -18.941807 49.790718 129.877182 89.427551 -51.108719 84.533875 13.967755 1.975622 -0.153463 -4.507567 0.146101 -2.158682 26.61302 4.448966 -3.252272 21.20986 -1.135871 2.282703 -2.472065 -0.610292 4.92585 -25.567551 1.865688 5.202333 5e-06 1e-06 0.0 -0.271811 -0.041412 0.054651 -0.613528 -0.02575 -0.034199 -0.586098 -0.07109 0.14799 3.021346 -69.722191 5.505891 56.276382 16.223925 -39.34042 7.162179 -1.172348 -0.044912 2.863056 48.536522 0.338694 17.636625 -26.322725 52.411198 -19.46665 -14.395596 29.410385 0.0 -8.774819 -3e-06 16.960424 -18.404324 5.907695 -0.609776 -1.795654 -3.889328 -4.807088 -11.046809 -2.93785 4e-06 -20.976011 -1e-06 -5.019968 -25.033546 -4.031882 6e-06 -0.0 -1e-06 -10.634533 -5.686972 -3.565588 10.573271 -17.922945 -3.1139 3e-06 -13.821203 1e-06 -0.501776 -31.181488 -4.027016 -11.642511 -60.259804 7.395297 -13.982712 -7.150198 -2.875044 13.772727 -8.401492 -3.21824 0.347733 -34.211536 0.771654 -0.963029 -17.733364 2.621019 -0.0 -0.0 -0.0 -17.346416 -20.095213 -4.201786 21.757555 -1.638375 3.866429 1e-06 -6.338821 1e-06 -1.697588 -22.591734 -6.194007 -0.0 -5e-06 -2e-06 178.816071 -74.832901 9.002955 94.398087 -5.034807 -15.050083 11.322217 -0.963262 -0.009336 -61.154537 79.94281 -55.769691 22.182121 -20.375893 49.933319 -16.701811 -16.743523 28.476526 -3e-06 -12.690601 -1e-06 16.53023 -17.860928 2.781964 -0.10592 -1.513855 -4.275882 -5.039042 -5.612871 -2.953557 5e-06 -11.020525 -2e-06 -6.1113 -15.895334 -3.840472 -0.0 -0.0 2e-06 -10.283371 -5.680288 -4.341839 11.028294 -11.302406 -2.372633 -1.38427 -14.238583 -6.320121 -0.625437 -26.924185 -3.827601 -3.926063 -49.909626 -4.081876 -13.708527 -7.363476 -3.720941 18.141148 -14.052735 -3.242673 6e-06 -18.78727 -3e-06 -0.429712 -8.456043 2.555504 -0.0 1e-06 0.0 -15.923536 -20.094482 -5.473588 30.41921 -7.190827 1.735928 3e-06 -8.162927 -0.0 -1.861901 -22.861469 -6.167943 0.0 -4e-06 -0.0 149.358505 -0.065962 4.66016 85.371506 1.337704 -0.535146 -65.230698 9.677352 -13.411587 -14.247727 1.120894 2.029467 -1.0 1e-06 0.0 -86.341034 1.786399 1.541968 136.128311 -0.032166 0.158299 -59.197395 8.392157 -10.181621 -5.049484 0.471857 2.01388 -1.000004 0.0 0.0 
0.0 0.0 0.0 0.0 -0.0 0.0 -19.199041 49.312286 131.452942 88.61425 -50.081959 85.459534 13.969581 2.319994 -0.168948 -4.485868 0.266822 -2.214663 27.064041 4.753594 -3.15563 21.696789 -1.449389 2.194529 -2.478476 -0.621571 4.727952 -25.483381 1.985868 5.008745 5e-06 -0.0 0.0 -0.266399 -0.052334 0.057713 -0.614239 -0.048739 -0.028915 -0.582116 -0.068527 0.149501 0.773023 -70.104416 7.782724 58.587402 14.668955 -37.505047 7.392403 -1.106749 -0.034714 1.560575 50.612167 0.178915 17.636637 -26.322735 52.411213 -19.466665 -14.395604 29.410398 -2e-06 -8.774822 -1e-06 16.961039 -18.380533 5.919914 -0.609776 -1.795655 -3.889328 -4.807087 -11.046811 -2.937852 6e-06 -20.976019 -1e-06 -5.019969 -25.033556 -4.031883 6e-06 -1e-06 0.0 -10.634537 -5.68697 -3.565589 10.573278 -17.922955 -3.113902 3e-06 -13.821211 0.0 -0.501775 -31.181505 -4.027017 -11.819496 -60.392056 7.517887 -13.982718 -7.150198 -2.875043 13.772733 -8.401497 -3.218242 0.347737 -34.211555 0.771654 -0.963028 -17.73337 2.621021 -0.0 -1e-06 -0.0 -17.346422 -20.095217 -4.201784 21.757566 -1.638375 3.866429 2e-06 -6.33882 1e-06 -1.697588 -22.591742 -6.194008 0.0 -5e-06 -2e-06 -178.672348 -75.191971 7.055057 93.548065 -6.952531 -15.755763 11.793674 -1.085638 -0.012785 -65.046768 81.171379 -59.794537 22.182112 -20.375898 49.933331 -16.701817 -16.743536 28.476542 -5e-06 -12.690605 0.0 16.517132 -17.877466 2.703483 -0.105918 -1.513855 -4.275882 -5.03904 -5.612872 -2.953557 4e-06 -11.020527 -2e-06 -6.111297 -15.895334 -3.840473 1e-06 -1e-06 1e-06 -10.283373 -5.680289 -4.341839 11.028296 -11.302406 -2.372634 -1.384269 -14.238583 -6.320121 -0.625435 -26.924192 -3.827604 -3.904869 -49.844009 -4.194133 -13.708526 -7.363476 -3.720939 18.141153 -14.052742 -3.242677 5e-06 -18.787273 -3e-06 -0.429712 -8.456041 2.555504 0.0 0.0 0.0 -15.923539 -20.094484 -5.473585 30.419222 -7.190827 1.735925 2e-06 -8.162928 0.0 -1.861902 -22.861473 -6.167943 0.0 -4e-06 -1e-06 152.667618 -0.337298 5.429342 82.779358 1.407467 -0.682798 -63.455395 9.556765 -13.10245 -14.608746 1.146526 1.988575 -1.0 0.0 0.0 -87.669739 2.441628 0.690337 136.28244 0.216706 0.161231 -59.147938 7.440146 -11.206159 -5.729743 0.512959 1.962384 -1.000002 -0.0 -0.0 
0.0 0.0 0.0 0.0 -0.0 0.0 -19.478434 48.772678 133.079605 87.985626 -49.201744 86.235931 13.882008 2.592593 -0.18574 -4.511765 0.368528 -2.186627 27.362196 4.999455 -2.950581 22.146935 -1.725323 2.12953 -2.489922 -0.641542 4.47293 -25.351875 1.974462 4.778071 6e-06 0.0 0.0 -0.258789 -0.057179 0.061088 -0.623436 -0.053683 -0.026977 -0.586611 -0.070991 0.153943 -2.014176 -70.471382 10.519558 61.298744 13.054985 -35.647152 7.707004 -1.017799 -0.022868 0.350857 52.74807 0.009404 17.636631 -26.322725 52.41119 -19.466656 -14.395596 29.410381 -1e-06 -8.774821 -2e-06 16.887512 -18.389517 5.954151 -0.609776 -1.795654 -3.889328 -4.807089 -11.046809 -2.93785 4e-06 -20.976015 -1e-06 -5.01997 -25.033556 -4.031881 7e-06 2e-06 0.0 -10.634535 -5.686971 -3.565588 10.573272 -17.922947 -3.1139 3e-06 -13.821205 0.0 -0.501776 -31.181498 -4.027018 -11.956995 -60.395168 7.61436 -13.982714 -7.150198 -2.875043 13.772729 -8.401491 -3.21824 0.347734 -34.211544 0.771653 -0.963028 -17.733368 2.621019 -0.0 -0.0 -0.0 -17.346418 -20.095219 -4.201784 21.757557 -1.638375 3.866429 1e-06 -6.338822 1e-06 -1.697588 -22.591743 -6.194008 0.0 -6e-06 -2e-06 -175.952362 -75.665665 4.929341 92.539749 -9.055359 -16.649994 12.097853 -1.285598 -0.01139 -68.739914 82.493263 -63.891857 22.18211 -20.375898 49.933315 -16.701813 -16.743528 28.476532 -1e-06 -12.690601 1e-06 16.556787 -17.838316 2.591795 -0.105921 -1.513855 -4.275882 -5.039038 -5.612872 -2.953556 3e-06 -11.020529 -2e-06 -6.1113 -15.895336 -3.840468 2e-06 -1e-06 0.0 -10.283371 -5.680291 -4.341837 11.02829 -11.302405 -2.372634 -1.384269 -14.238584 -6.32012 -0.625437 -26.924191 -3.827599 -3.875282 -49.786633 -4.260309 -13.708522 -7.363478 -3.720938 18.141153 -14.052744 -3.242676 4e-06 -18.787273 -2e-06 -0.429712 -8.456043 2.555503 0.0 1e-06 1e-06 -15.923536 -20.094486 -5.473583 30.41921 -7.190823 1.735924 3e-06 -8.162927 -2e-06 -1.861903 -22.861475 -6.167941 0.0 -2e-06 -1e-06 155.890045 -0.680847 6.018507 80.028748 1.465167 -0.8418 -61.543125 9.347814 -12.84838 -14.754587 1.186247 1.951234 -1.0 1e-06 -0.0 -87.45089 2.842492 -0.088791 136.0466 0.406614 0.155151 -58.847874 6.595757 -12.281102 -6.566632 0.540565 1.945559 -1.000004 0.0 -0.0 
0.0 0.0 0.0 0.0 -0.0 0.0 -19.733044 48.099548 134.665009 87.556206 -48.632511 86.847084 13.569399 2.771891 -0.21469 -4.619079 0.526235 -2.114662 27.597582 5.136139 -2.603961 22.536741 -2.06508 2.068404 -2.519075 -0.799585 4.183836 -25.244347 2.218853 4.414692 7e-06 -0.0 0.0 -0.272358 -0.098654 0.065704 -0.646507 -0.103776 -0.005316 -0.601382 -0.101967 0.141535 -5.351785 -70.735649 13.947771 64.39431 11.507809 -33.754951 8.076829 -0.837295 -0.013164 -1.187488 54.978996 -1.09975 17.636627 -26.322729 52.411186 -19.466661 -14.395596 29.410389 -0.0 -8.77482 -2e-06 16.857483 -18.572836 5.957331 -0.609776 -1.795655 -3.889328 -4.807088 -11.046814 -2.93785 5e-06 -20.976019 -2e-06 -5.019969 -25.033556 -4.031881 6e-06 1e-06 -1e-06 -10.634534 -5.686974 -3.565587 10.573275 -17.922953 -3.113902 3e-06 -13.821211 -0.0 -0.501776 -31.181507 -4.027018 -12.144204 -60.405605 7.565709 -13.982714 -7.1502 -2.875041 13.772731 -8.401495 -3.218242 0.347735 -34.211555 0.771652 -0.963028 -17.73337 2.621019 -0.0 -0.0 -0.0 -17.346418 -20.095222 -4.201782 21.757557 -1.638375 3.866428 1e-06 -6.338824 0.0 -1.697588 -22.591749 -6.194007 -0.0 -5e-06 -2e-06 -173.152756 -76.18045 2.829072 91.321182 -11.28137 -17.5697 12.364398 -1.314079 -0.015245 -73.578613 83.9086 -69.154839 22.182108 -20.375891 49.933319 -16.701813 -16.743534 28.476532 -3e-06 -12.690599 0.0 16.543447 -17.903931 2.554044 -0.105918 -1.513856 -4.275883 -5.039041 -5.61287 -2.953557 4e-06 -11.020524 -2e-06 -6.111298 -15.89533 -3.840472 -0.0 -3e-06 0.0 -10.283365 -5.680289 -4.341838 11.028293 -11.302402 -2.372636 -1.384269 -14.238581 -6.320119 -0.625436 -26.924183 -3.827601 -3.89862 -49.782837 -4.220541 -13.708524 -7.363474 -3.72094 18.14115 -14.052738 -3.242675 6e-06 -18.78727 -2e-06 -0.429713 -8.456042 2.555504 1e-06 1e-06 3e-06 -15.923532 -20.094481 -5.473586 30.41921 -7.190824 1.735925 2e-06 -8.162926 -1e-06 -1.861904 -22.861469 -6.167941 1e-06 -3e-06 -2e-06 158.720749 -1.034317 6.308446 77.33387 1.420031 -0.988339 -59.299927 9.109368 -12.714559 -14.740862 1.190154 1.965276 -0.999997 -0.0 -0.0 -85.830231 3.02395 -0.676877 135.254684 0.660226 0.114706 -57.893955 5.872856 -13.360202 -6.584987 0.51885 1.992997 -1.000003 -0.0 -0.0 
0.0 0.0 0.0 0.0 -0.0 0.0 -19.949162 47.629128 136.181458 87.196526 -48.347 87.106026 13.359 2.838613 -0.165479 -4.707757 0.649188 -1.904188 27.482256 5.255082 -2.149001 22.7934 -2.450578 2.000384 -2.499774 -0.768246 3.986445 -25.116669 1.9708 4.209221 6e-06 -1e-06 0.0 -0.27024 -0.122306 0.075319 -0.64752 -0.113446 0.00598 -0.609076 -0.136339 0.146996 -9.571509 -70.923378 17.83857 67.662834 9.623429 -32.309208 8.637787 -0.693627 0.004817 -1.824601 57.420151 -0.96021 17.636627 -26.322729 52.411182 -19.46666 -14.395597 29.410385 -1e-06 -8.77482 -2e-06 16.738937 -18.549135 5.958788 -0.609777 -1.795654 -3.889327 -4.807087 -11.046809 -2.93785 5e-06 -20.976011 -0.0 -5.019969 -25.033552 -4.03188 6e-06 -0.0 1e-06 -10.634534 -5.686968 -3.565588 10.573274 -17.922951 -3.1139 3e-06 -13.821205 1e-06 -0.501777 -31.181498 -4.027014 -12.0736 -60.192593 7.42786 -13.982713 -7.150195 -2.875043 13.772729 -8.401493 -3.218241 0.347734 -34.211544 0.771656 -0.963028 -17.733366 2.62102 -0.0 0.0 -0.0 -17.346416 -20.095215 -4.201784 21.757557 -1.638373 3.866429 2e-06 -6.338822 1e-06 -1.697589 -22.591742 -6.194006 -0.0 -5e-06 -2e-06 -170.243622 -76.692772 0.359071 90.163925 -13.676982 -18.74682 12.472178 -1.500292 -0.039234 -79.235222 85.242722 -75.723778 22.182114 -20.375895 49.933315 -16.701809 -16.743528 28.476526 -1e-06 -12.690598 -2e-06 16.415821 -17.897848 2.511398 -0.10592 -1.513856 -4.275881 -5.039039 -5.612868 -2.953556 1e-06 -11.020523 -3e-06 -6.111295 -15.895328 -3.840471 -1e-06 -3e-06 1e-06 -10.283368 -5.680287 -4.341838 11.028291 -11.302402 -2.372633 -1.38427 -14.238577 -6.320119 -0.625438 -26.924183 -3.827601 -3.934618 -49.691387 -4.170432 -13.708522 -7.363473 -3.72094 18.141146 -14.052741 -3.242673 9e-06 -18.787268 -1e-06 -0.429712 -8.456041 2.555504 0.0 0.0 1e-06 -15.923532 -20.094479 -5.473584 30.41921 -7.190825 1.735926 3e-06 -8.162926 -0.0 -1.861903 -22.861467 -6.16794 0.0 -2e-06 -2e-06 161.169601 -1.491276 6.251372 74.591217 1.363431 -1.126104 -57.594978 8.83674 -12.658873 -14.370295 1.195108 1.955546 -1.0 -0.0 0.0 -82.603958 3.101476 -1.173785 134.186249 0.654607 0.103792 -57.298206 5.698607 -13.912829 -6.477189 0.466823 2.075091 -1.000004 0.0 -0.0 
